<svg width="303" height="176" viewBox="0 0 303 176" fill="none" xmlns="http://www.w3.org/2000/svg">
<g clip-path="url(#clip0)">
<path d="M292.122 27.847C293.674 24.9149 295.3 22.0438 297.011 19.185V19.3316C297.464 17.167 298.221 15.0775 299.26 13.1252C299.765 12.1414 300.345 11.1979 300.995 10.303C301.306 9.91118 301.596 9.50338 301.863 9.0813C301.863 9.0813 301.863 8.99578 301.863 9.22791C301.877 9.32992 301.924 9.42447 301.998 9.49669C302.042 9.54769 302.096 9.58925 302.157 9.61886H302.254H302.426L302.144 9.82655C301.925 9.94345 301.712 10.074 301.509 10.2175C299.749 11.4392 298.062 12.7465 296.363 14.0537L291.278 18.0488C291.213 18.0948 291.138 18.1242 291.058 18.1343C289.373 18.232 287.684 18.232 285.998 18.1343C285.152 18.0628 284.311 17.9363 283.48 17.7556C282.637 17.6434 281.848 17.2769 281.219 16.7049C281.908 17.1693 282.712 17.4355 283.542 17.4746C284.353 17.5728 285.169 17.6177 285.986 17.6089C287.648 17.6089 289.311 17.499 290.961 17.3402L290.716 17.4379C292.346 15.9881 293.976 14.5791 295.605 13.2107C297.28 11.8302 298.954 10.4863 300.788 9.24012C301.028 9.07688 301.277 8.926 301.533 8.78809C301.698 8.69469 301.875 8.62478 302.059 8.58039C302.179 8.54767 302.306 8.54767 302.426 8.58039H302.572C302.649 8.61797 302.719 8.66746 302.78 8.727C302.869 8.83141 302.928 8.9581 302.951 9.09352C302.969 9.27969 302.931 9.46706 302.841 9.63108C302.56 10.1242 302.245 10.5977 301.9 11.0483C300.023 13.6277 298.627 16.5249 297.781 19.6004C297.785 19.6328 297.785 19.6657 297.781 19.6981C295.911 22.3981 294.065 25.147 292.122 27.847Z" fill="#61C9A8"/>
<path d="M254.391 111.12C253.519 112.778 252.768 114.497 252.142 116.263C251.833 117.143 251.596 118.046 251.433 118.963C251.236 119.841 251.27 120.754 251.53 121.614C253.478 122.955 255.265 124.512 256.86 126.257C257.649 127.145 258.368 128.093 259.011 129.091C259.326 129.602 259.616 130.128 259.879 130.667C260.116 131.141 260.454 131.558 260.869 131.889C261.768 132.554 262.825 132.975 263.937 133.111C265.075 133.258 266.225 133.294 267.371 133.221C269.675 133.041 271.956 132.631 274.179 131.999H274.032C276.956 129.734 279.624 127.157 281.989 124.314C283.156 122.94 284.067 121.368 284.678 119.672C284.952 118.887 285.003 118.041 284.825 117.228C284.695 116.805 284.523 116.396 284.312 116.007C284.124 115.549 283.965 115.08 283.835 114.602C283.055 110.893 282.763 107.098 282.967 103.313C283.065 99.5501 283.346 95.8116 283.786 92.0853V92.1586C283.801 88.4755 284.104 84.7992 284.691 81.1631C284.972 79.3305 285.338 77.4979 285.766 75.7264C286.162 73.9265 286.651 72.1485 287.233 70.3997C287.253 70.3402 287.287 70.286 287.331 70.2409C288.92 68.3961 290.448 66.478 291.902 64.5232C293.371 62.6077 294.664 60.5632 295.764 58.4146C296.013 57.8991 296.206 57.3585 296.339 56.8019C296.386 56.5598 296.386 56.3109 296.339 56.0689C296.323 55.9778 296.29 55.8906 296.241 55.8123L295.997 55.4091C295.387 54.2931 294.915 53.1076 294.591 51.8783C293.928 49.497 293.409 47.0776 293.039 44.6335V44.5235C293.221 39.3563 292.365 34.2049 290.521 29.3741C289.559 26.9826 288.329 24.7078 286.854 22.5936C285.368 20.4673 283.655 18.5092 281.745 16.7537C285.704 20.1683 288.834 24.4379 290.9 29.2398C292.939 34.0775 293.946 39.287 293.858 44.5358C294.254 46.9378 294.801 49.3126 295.495 51.6462C295.809 52.7938 296.265 53.8979 296.852 54.9326L297.097 55.3114C297.22 55.4901 297.299 55.6951 297.329 55.91C297.403 56.2687 297.403 56.6387 297.329 56.9974C297.197 57.6393 296.988 58.2629 296.706 58.8544C295.611 61.0925 294.296 63.2165 292.782 65.1951C291.315 67.1988 289.787 69.1291 288.199 71.0106L288.296 70.8517C287.705 72.5593 287.203 74.2965 286.793 76.0563C286.39 77.8278 286.023 79.5993 285.754 81.3952C285.208 84.986 284.931 88.6123 284.923 92.2441V92.3175C284.483 95.9826 284.177 99.7211 284.055 103.423C283.841 107.106 284.1 110.801 284.825 114.418C284.941 114.835 285.084 115.243 285.253 115.64C285.476 116.084 285.66 116.545 285.803 117.021C286.029 118.035 285.97 119.092 285.632 120.075C284.972 121.899 283.987 123.588 282.723 125.06C280.291 127.948 277.535 130.546 274.509 132.805C274.463 132.842 274.408 132.867 274.35 132.879C272.055 133.482 269.704 133.851 267.334 133.978C266.138 134.043 264.938 133.986 263.753 133.807C262.523 133.653 261.355 133.177 260.368 132.427C259.876 132.024 259.482 131.514 259.219 130.936C258.962 130.423 258.717 129.898 258.412 129.409C257.816 128.421 257.137 127.485 256.383 126.611C254.861 124.854 253.148 123.272 251.274 121.895C250.972 120.962 250.942 119.962 251.188 119.012C251.386 118.086 251.651 117.175 251.983 116.288C252.662 114.51 253.467 112.784 254.391 111.12Z" fill="#61C9A8"/>
<path d="M165.165 66.5268C167.773 64.3836 170.649 62.5889 173.721 61.1879C175.228 60.4663 176.816 59.9289 178.451 59.5874C180.127 59.1886 181.872 59.1886 183.548 59.5874C185.088 60.1372 186.42 58.8788 187.447 57.6815C188.467 56.3843 189.356 54.9887 190.099 53.5154C191.606 50.5565 192.901 47.4945 193.974 44.3525C195.667 40.7419 197.688 37.2944 200.012 34.0534C202.354 30.796 204.953 27.7319 207.785 24.8904C213.371 19.2162 220.015 14.6919 227.342 11.5736C231.017 10.0227 234.854 8.88759 238.782 8.18942C242.697 7.48011 246.673 7.16496 250.65 7.24869C258.567 7.47586 266.401 8.92653 273.873 11.5492C266.341 9.26626 258.521 8.06913 250.65 7.99395C246.724 8.00862 242.81 8.41792 238.965 9.21567C235.123 9.95547 231.369 11.1022 227.77 12.6365C220.593 15.7296 214.075 20.1669 208.568 25.709C203.009 31.2365 198.418 37.6585 194.988 44.7068C193.854 47.8844 192.481 50.972 190.882 53.9431C190.084 55.4494 189.134 56.87 188.046 58.1824C187.491 58.862 186.831 59.4478 186.09 59.9173C185.694 60.1603 185.254 60.3223 184.795 60.3938C184.333 60.43 183.869 60.3803 183.426 60.2472C181.827 59.8362 180.156 59.7903 178.537 60.1128C176.904 60.3905 175.311 60.8665 173.794 61.53C170.728 62.8444 167.831 64.522 165.165 66.5268Z" fill="#61C9A8"/>
<path d="M190.979 38.7692L191.456 37.6452C191.463 37.6113 191.477 37.5795 191.498 37.5519C191.519 37.5244 191.546 37.5019 191.577 37.4861C191.608 37.4702 191.642 37.4615 191.676 37.4605C191.711 37.4594 191.745 37.4661 191.777 37.4801C191.809 37.4941 191.837 37.5149 191.859 37.5412C191.882 37.5674 191.898 37.5984 191.907 37.6318C191.916 37.6652 191.918 37.7001 191.912 37.7342C191.906 37.7682 191.892 37.8004 191.871 37.8285L191.321 38.9036C191.298 38.9452 191.26 38.9768 191.215 38.9926C191.17 39.0083 191.121 39.0071 191.077 38.9891C191.039 38.9686 191.008 38.9358 190.99 38.896C190.973 38.8561 190.969 38.8115 190.979 38.7692Z" fill="#61C9A8"/>
<path d="M194.341 32.1841L194.964 31.1334C195.03 31.0275 195.134 30.9516 195.255 30.9219C195.376 30.8922 195.504 30.9112 195.612 30.9746C195.717 31.038 195.793 31.1405 195.822 31.2595C195.852 31.3785 195.833 31.5045 195.771 31.6099L195.086 32.6117C195.022 32.7057 194.923 32.7709 194.811 32.7937C194.7 32.8165 194.583 32.7951 194.487 32.7339C194.402 32.6745 194.34 32.5866 194.313 32.4859C194.286 32.3852 194.296 32.2783 194.341 32.1841Z" fill="#61C9A8"/>
<path d="M198.313 26.0144L199.046 25.0248C199.1 24.9526 199.167 24.8917 199.245 24.8456C199.322 24.7994 199.408 24.769 199.497 24.7559C199.586 24.7429 199.677 24.7475 199.764 24.7695C199.851 24.7916 199.933 24.8306 200.006 24.8843C200.078 24.9381 200.139 25.0055 200.185 25.0828C200.231 25.1601 200.262 25.2457 200.275 25.3347C200.288 25.4238 200.283 25.5145 200.261 25.6018C200.239 25.6891 200.2 25.7712 200.146 25.8434L199.364 26.7719C199.259 26.908 199.103 26.9966 198.933 27.0184C198.762 27.0402 198.589 26.9932 198.453 26.8879C198.317 26.7826 198.228 26.6276 198.207 26.4569C198.185 26.2862 198.232 26.1138 198.337 25.9777L198.313 26.0144Z" fill="#61C9A8"/>
<path d="M203.801 19.3438L204.644 18.4519C204.715 18.3355 204.811 18.2361 204.925 18.161C205.039 18.0858 205.168 18.0366 205.303 18.017C205.438 17.9973 205.576 18.0076 205.706 18.0472C205.837 18.0868 205.957 18.1546 206.059 18.2459C206.16 18.3372 206.24 18.4498 206.293 18.5755C206.346 18.7012 206.371 18.8371 206.365 18.9734C206.36 19.1097 206.324 19.2431 206.261 19.3641C206.198 19.4851 206.109 19.5908 206.001 19.6736L205.133 20.4922C204.962 20.5825 204.767 20.6156 204.576 20.5868C204.384 20.558 204.208 20.4688 204.071 20.3321C203.934 20.1955 203.845 20.0187 203.816 19.8276C203.787 19.6366 203.82 19.4413 203.911 19.2705L203.801 19.3438Z" fill="#61C9A8"/>
<path d="M209.179 14.2125L210.132 13.4184C210.243 13.3254 210.371 13.255 210.509 13.2114C210.647 13.1678 210.792 13.1518 210.936 13.1643C211.08 13.1767 211.22 13.2175 211.349 13.2841C211.477 13.3508 211.591 13.4421 211.684 13.5528C211.777 13.6635 211.848 13.7915 211.891 13.9293C211.935 14.0672 211.951 14.2124 211.939 14.3564C211.926 14.5005 211.885 14.6407 211.819 14.7691C211.752 14.8974 211.661 15.0113 211.55 15.1044L210.597 15.8252C210.373 15.984 210.097 16.0514 209.825 16.0136C209.554 15.9758 209.307 15.8357 209.135 15.6219C208.963 15.4081 208.88 15.1367 208.901 14.8634C208.923 14.5901 209.049 14.3354 209.252 14.1514L209.179 14.2125Z" fill="#61C9A8"/>
<path d="M215.119 9.71659L216.17 9.03242C216.308 8.9347 216.465 8.86672 216.631 8.8328C216.797 8.79887 216.968 8.79974 217.133 8.83535C217.299 8.87095 217.455 8.94052 217.592 9.03963C217.73 9.13875 217.845 9.26527 217.93 9.41116C218.029 9.5485 218.097 9.70471 218.132 9.86994C218.167 10.0352 218.167 10.2058 218.133 10.3711C218.098 10.5365 218.03 10.6928 217.932 10.8304C217.834 10.968 217.709 11.0838 217.564 11.1704L216.525 11.7691C216.252 11.9554 215.917 12.026 215.593 11.9652C215.268 11.9045 214.982 11.7175 214.795 11.4453C214.609 11.1732 214.538 10.8381 214.599 10.5139C214.66 10.1897 214.847 9.9029 215.119 9.71659Z" fill="#61C9A8"/>
<path d="M222.758 5.42834L223.895 4.903C224.073 4.81039 224.268 4.75501 224.468 4.74024C224.669 4.72548 224.87 4.75163 225.06 4.81711C225.25 4.88258 225.424 4.98602 225.573 5.1211C225.721 5.25618 225.841 5.42008 225.924 5.60281C226.007 5.78553 226.052 5.98326 226.056 6.18394C226.06 6.38461 226.023 6.58403 225.948 6.77004C225.872 6.95605 225.76 7.12475 225.617 7.26586C225.474 7.40696 225.304 7.51752 225.117 7.59079H225.056L223.944 8.03062C223.592 8.18129 223.195 8.18613 222.84 8.04407C222.484 7.90202 222.2 7.62471 222.049 7.27315C221.899 6.92158 221.894 6.52456 222.036 6.16943C222.178 5.8143 222.455 5.53014 222.807 5.37947L222.758 5.42834Z" fill="#61C9A8"/>
<path d="M229.786 2.66724L231.009 2.2885C231.219 2.22272 231.44 2.19898 231.659 2.21864C231.879 2.2383 232.092 2.30097 232.288 2.40307C232.483 2.50517 232.656 2.64471 232.797 2.81371C232.938 2.98272 233.045 3.17788 233.111 3.38805C233.177 3.59823 233.2 3.8193 233.181 4.03865C233.161 4.258 233.098 4.47133 232.996 4.66646C232.894 4.86159 232.754 5.0347 232.585 5.1759C232.416 5.31711 232.221 5.42364 232.011 5.48942H231.913L230.764 5.77042C230.369 5.84737 229.959 5.77621 229.614 5.57054C229.268 5.36486 229.01 5.03907 228.889 4.65534C228.768 4.2716 228.792 3.8568 228.958 3.4901C229.124 3.1234 229.418 2.83048 229.786 2.66724Z" fill="#61C9A8"/>
<path d="M237.12 0.810183L238.342 0.602489C238.833 0.524879 239.335 0.644453 239.738 0.935126C240.141 1.2258 240.412 1.66398 240.494 2.15408C240.534 2.39563 240.526 2.64273 240.47 2.88116C240.414 3.11958 240.312 3.34462 240.168 3.54334C240.025 3.74205 239.844 3.9105 239.636 4.03901C239.427 4.16751 239.195 4.25352 238.953 4.2921H238.843L237.682 4.43871C237.442 4.4732 237.196 4.45996 236.961 4.39973C236.725 4.3395 236.504 4.23347 236.309 4.08769C236.114 3.94191 235.95 3.75924 235.826 3.5501C235.702 3.34096 235.621 3.10945 235.586 2.86879C235.552 2.62813 235.565 2.38303 235.625 2.14749C235.685 1.91195 235.791 1.69058 235.937 1.49602C236.083 1.30146 236.266 1.13751 236.475 1.01355C236.684 0.889583 236.916 0.808025 237.157 0.773531L237.12 0.810183Z" fill="#61C9A8"/>
<path d="M245.847 0.0527313H247.069C247.519 0.10473 247.934 0.320171 248.235 0.658071C248.536 0.99597 248.702 1.43275 248.702 1.88532C248.702 2.33789 248.536 2.77467 248.235 3.11257C247.934 3.45047 247.519 3.66591 247.069 3.71791H245.847C245.582 3.76787 245.31 3.75985 245.049 3.69439C244.788 3.62893 244.545 3.5076 244.335 3.33879C244.126 3.16997 243.956 2.95771 243.836 2.71666C243.717 2.47562 243.651 2.21155 243.644 1.94272C243.637 1.67389 243.688 1.40671 243.795 1.15965C243.901 0.912595 244.06 0.69156 244.26 0.511829C244.46 0.332099 244.697 0.197963 244.954 0.118695C245.211 0.0394281 245.482 0.0169213 245.749 0.0527313H245.847Z" fill="#61C9A8"/>
<path d="M253.352 0.602509L254.574 0.785767C254.984 0.831131 255.359 1.03746 255.617 1.35937C255.875 1.68128 255.994 2.0924 255.949 2.50229C255.904 2.91218 255.697 3.28726 255.375 3.54502C255.053 3.80277 254.642 3.9221 254.232 3.87673H253.009C252.601 3.82679 252.226 3.62366 251.961 3.30838C251.697 2.99309 251.562 2.58914 251.583 2.17812C251.605 1.7671 251.782 1.37963 252.078 1.09398C252.375 0.80833 252.769 0.645779 253.181 0.63916L253.352 0.602509Z" fill="#61C9A8"/>
<path d="M260.685 2.08081L261.907 2.41068C262.165 2.49695 262.382 2.67424 262.517 2.90919C262.653 3.14413 262.698 3.42051 262.644 3.68629C262.59 3.95208 262.44 4.18894 262.224 4.35227C262.007 4.51561 261.738 4.59416 261.467 4.57313L260.245 4.42652C259.974 4.33894 259.742 4.15924 259.589 3.91854C259.436 3.67784 259.372 3.39129 259.408 3.10852C259.445 2.82575 259.579 2.56456 259.787 2.37018C259.996 2.1758 260.266 2.06047 260.551 2.04416L260.685 2.08081Z" fill="#61C9A8"/>
<path d="M268.898 4.93963L270.023 5.44053C270.088 5.46987 270.138 5.52359 270.163 5.58997C270.188 5.65635 270.186 5.73 270.157 5.79483C270.132 5.84914 270.09 5.89386 270.037 5.92244C269.984 5.95102 269.924 5.96196 269.864 5.95366L268.642 5.74596C268.532 5.72814 268.433 5.66729 268.368 5.57679C268.302 5.48629 268.276 5.37355 268.293 5.26338C268.311 5.15322 268.372 5.05464 268.463 4.98934C268.553 4.92404 268.666 4.89737 268.776 4.91519L268.898 4.93963Z" fill="#61C9A8"/>
<path d="M268.654 16.8392C270.164 15.9578 271.458 14.7518 272.443 13.3085C272.938 12.5834 273.387 11.8286 273.788 11.0483C274.251 10.2636 274.792 9.52698 275.401 8.84916C276.626 7.53797 277.964 6.33612 279.398 5.25729C280.816 4.17652 282.289 3.16931 283.81 2.23963C283.947 2.15732 284.111 2.13169 284.266 2.16822C284.421 2.20474 284.556 2.30053 284.642 2.4351C284.717 2.55051 284.748 2.68966 284.727 2.82605L284.104 8.27495C283.884 10.1075 283.7 11.8546 283.554 13.7483C283.331 14.6988 282.937 15.6012 282.393 16.4116C281.89 17.1999 281.326 17.9475 280.706 18.6474C279.45 20.0151 277.99 21.1813 276.379 22.1049C277.833 21.0053 279.129 19.7103 280.229 18.2565C280.789 17.5548 281.288 16.8069 281.72 16.0207C282.163 15.2669 282.466 14.439 282.613 13.5772C282.613 11.8302 282.808 9.91206 282.943 8.11613L283.566 2.7161L284.483 3.31474C283.004 4.19439 281.537 5.18398 280.131 6.19802C278.722 7.21476 277.383 8.32496 276.122 9.52111C275.511 10.1105 274.962 10.7614 274.485 11.4637C274.024 12.2325 273.51 12.9674 272.944 13.6628C271.792 15.0526 270.32 16.1426 268.654 16.8392Z" fill="#61C9A8"/>
<path d="M233.013 57.3639C232.982 59.3465 233.225 61.324 233.734 63.2404C234.186 65.1544 234.833 67.0171 235.665 68.7992C237.302 72.3696 239.438 75.6893 242.009 78.6586L243.977 80.8332C244.307 81.212 244.686 81.6274 245.016 82.055C245.346 82.4826 245.615 82.898 245.871 83.35C246.873 85.1151 247.692 86.9777 248.316 88.9089C249.597 92.6987 250.538 96.5951 251.127 100.552C250.589 98.6338 250.039 96.7157 249.416 94.8342C248.793 92.9528 248.194 91.0591 247.436 89.2265C246.736 87.3979 245.881 85.6323 244.881 83.9486C244.637 83.5333 244.344 83.1667 244.087 82.7269C243.83 82.2871 243.476 82.0305 243.146 81.664L241.117 79.4649C238.456 76.4086 236.321 72.9325 234.798 69.178C233.202 65.4573 232.587 61.3897 233.013 57.3639Z" fill="#61C9A8"/>
<path d="M219.751 142.201C219.48 140.772 219.386 139.315 219.47 137.863C219.517 136.412 219.644 134.964 219.849 133.526C220.303 130.637 220.944 127.78 221.768 124.974C222.538 122.164 223.589 119.452 224.628 116.74L226.303 112.72C226.83 111.402 227.271 110.052 227.623 108.676C229.212 103.142 230.459 97.4854 231.815 91.8776L233.832 83.4355L234.883 79.2206L235.409 77.1192L235.702 76.0685L235.849 75.5432L235.934 75.2866V75.1522V75.2744L235.873 75.5432L235.763 76.0807L235.568 77.1436L235.164 79.2816L234.394 83.5455L232.707 92.0975C231.546 97.7663 230.263 103.423 228.772 109.031C228.386 110.461 227.908 111.865 227.342 113.233L225.631 117.192C224.555 119.867 223.528 122.555 222.636 125.292C221.718 128.019 220.975 130.802 220.411 133.624C219.777 136.436 219.555 139.325 219.751 142.201Z" fill="#61C9A8"/>
<path d="M231.289 113.123C231.888 115.787 232.426 118.475 233.001 121.162C233.575 123.85 233.783 126.587 234.223 129.311C234.443 130.667 234.455 132.048 234.565 133.416L234.797 137.546V141.675C234.814 143.054 234.756 144.432 234.626 145.805L234.223 149.922L233.453 153.99L233.27 155.004L233.001 156.006L232.463 158.01C232.105 159.349 231.66 160.663 231.131 161.944C230.125 164.523 228.833 166.982 227.28 169.274L226.058 170.923L224.677 172.463C223.722 173.458 222.641 174.324 221.462 175.041C223.623 173.367 225.44 171.293 226.816 168.932C228.236 166.622 229.4 164.164 230.287 161.602C230.703 160.306 231.179 159.048 231.509 157.716L232.011 155.749L232.267 154.76L232.426 153.758L233.098 149.739L233.441 145.682C233.598 144.332 233.675 142.974 233.673 141.614L233.771 137.534C233.624 134.821 233.551 132.097 233.367 129.372C233.184 126.648 232.903 123.936 232.536 121.223C232.169 118.511 231.619 115.836 231.289 113.123Z" fill="#61C9A8"/>
<path d="M22.16 115.465H2L2.08 114.985C3.41333 114.985 4.38667 114.732 5 114.225C5.66667 113.665 6 111.065 6 106.425V96.5049C6 93.6516 5.90667 91.7049 5.72 90.6649C5.56 89.5982 5.32 88.9316 5 88.6649C4.38667 88.1582 3.41333 87.9049 2.08 87.9049L2 87.4649H20.68V93.2249L20.2 93.1449C20.2 91.3582 19.2533 90.1182 17.36 89.4249C15.4933 88.7316 12.6267 88.3849 8.76 88.3849V100.985C11.32 100.985 13.16 100.852 14.28 100.585C15.4 100.318 16.12 99.9182 16.44 99.3849C16.76 98.8249 16.92 97.9049 16.92 96.6249L17.36 96.5449V106.265L16.92 106.185C16.92 104.878 16.76 103.958 16.44 103.425C16.12 102.892 15.4 102.505 14.28 102.265C13.16 101.998 11.32 101.865 8.76 101.865V107.025C8.76 109.852 8.85333 111.732 9.04 112.665C9.25333 113.598 9.70667 114.225 10.4 114.545C17.92 114.545 21.68 112.945 21.68 109.745L22.16 109.665V115.465ZM39.9684 87.1049C44.2618 87.1049 47.6884 88.4249 50.2484 91.0649C52.8351 93.6782 54.1284 96.9716 54.1284 100.945C54.1284 104.892 53.1018 108.212 51.0484 110.905C49.0218 113.572 46.2218 115.158 42.6484 115.665C43.4484 115.852 44.8751 116.412 46.9284 117.345C49.0084 118.278 50.9018 118.745 52.6084 118.745C54.3151 118.745 55.9551 118.212 57.5284 117.145L58.0084 117.665C57.1018 118.652 56.1151 119.425 55.0484 119.985C54.0084 120.572 52.7684 120.865 51.3284 120.865C49.9151 120.865 48.4218 120.505 46.8484 119.785C45.3018 119.065 43.7151 118.345 42.0884 117.625C40.4618 116.905 39.1151 116.545 38.0484 116.545C36.9818 116.545 36.0084 116.692 35.1284 116.985L34.9284 116.185C35.4351 115.945 36.2751 115.758 37.4484 115.625C33.9551 115.012 31.1818 113.385 29.1284 110.745C27.0751 108.078 26.0484 104.785 26.0484 100.865C26.0484 96.9182 27.2884 93.6382 29.7684 91.0249C32.2751 88.4116 35.6751 87.1049 39.9684 87.1049ZM40.2084 114.945C43.6218 114.945 46.2084 113.718 47.9684 111.265C49.7551 108.785 50.6484 105.532 50.6484 101.505C50.6484 97.4782 49.7151 94.2249 47.8484 91.7449C45.9818 89.2649 43.3418 88.0249 39.9284 88.0249C36.5418 88.0249 33.9551 89.2516 32.1684 91.7049C30.4084 94.1582 29.5284 97.4116 29.5284 101.465C29.5284 105.492 30.4618 108.745 32.3284 111.225C34.1951 113.705 36.8218 114.945 40.2084 114.945ZM82.0269 96.5449V104.385C82.0269 106.172 81.8002 107.758 81.3469 109.145C80.9202 110.532 80.3602 111.638 79.6669 112.465C78.9735 113.292 78.1469 113.972 77.1869 114.505C75.5602 115.412 73.6935 115.865 71.5869 115.865C64.3602 115.865 60.7469 112.172 60.7469 104.785V96.5049C60.7469 93.6516 60.6535 91.7049 60.4669 90.6649C60.3069 89.6249 60.0669 88.9716 59.7469 88.7049C59.1335 88.1982 58.1602 87.9449 56.8269 87.9449L56.7469 87.4649H67.5069L67.4269 87.9449C66.7869 87.9449 66.2669 87.9716 65.8669 88.0249C65.4935 88.0782 65.1469 88.2249 64.8269 88.4649C64.5069 88.7049 64.2669 88.9849 64.1069 89.3049C63.9735 89.5982 63.8535 90.1049 63.7469 90.8249C63.6135 91.7582 63.5469 93.6516 63.5469 96.5049V104.985C63.5469 108.398 64.3069 110.878 65.8269 112.425C67.3735 113.945 69.4402 114.705 72.0269 114.705C74.6135 114.705 76.7602 113.878 78.4669 112.225C80.1735 110.545 81.0269 107.958 81.0269 104.465V96.5449C81.0269 93.8782 80.9069 91.9582 80.6669 90.7849C80.4269 89.6116 80.0269 88.8516 79.4669 88.5049C78.9335 88.1316 78.0135 87.9449 76.7069 87.9449L76.6269 87.4649H86.4669L86.3869 87.9449C85.0802 87.9449 84.1469 88.1316 83.5869 88.5049C83.0535 88.8516 82.6535 89.6116 82.3869 90.7849C82.1469 91.9582 82.0269 93.8782 82.0269 96.5449ZM96.0266 96.5049V106.425C96.0266 109.278 96.1066 111.225 96.2666 112.265C96.4532 113.305 96.7066 113.958 97.0266 114.225C97.6399 114.732 98.6132 114.985 99.9466 114.985L100.027 115.465H89.2266L89.3066 114.985C89.9732 114.985 90.4932 114.958 90.8666 114.905C91.2399 114.852 91.5866 114.705 91.9066 114.465C92.2532 114.225 92.4932 113.958 92.6266 113.665C92.7866 113.345 92.9199 112.825 93.0266 112.105C93.1599 111.172 93.2266 109.278 93.2266 106.425V96.5049C93.2266 93.7316 93.1466 91.7982 92.9866 90.7049C92.8266 89.6116 92.5866 88.9316 92.2666 88.6649C91.6266 88.1582 90.6399 87.9049 89.3066 87.9049L89.2266 87.4649H100.027L99.9466 87.9049C98.6132 87.9049 97.6399 88.1582 97.0266 88.6649C96.3599 89.2249 96.0266 91.8382 96.0266 96.5049ZM129.111 96.4649V115.665H127.871L109.031 91.8649V106.345C109.031 109.012 109.151 110.932 109.391 112.105C109.631 113.278 110.031 114.052 110.591 114.425C111.151 114.798 112.071 114.985 113.351 114.985L113.431 115.465H103.591L103.671 114.985C104.951 114.985 105.871 114.798 106.431 114.425C106.991 114.052 107.391 113.278 107.631 112.105C107.898 110.932 108.031 109.012 108.031 106.345V96.4649C108.031 93.7982 107.898 91.8916 107.631 90.7449C107.391 89.5716 106.991 88.8116 106.431 88.4649C105.898 88.0916 104.978 87.9049 103.671 87.9049L103.591 87.4649H109.031L128.111 111.265V96.4649C128.111 93.8249 127.978 91.9182 127.711 90.7449C127.471 89.5716 127.071 88.8116 126.511 88.4649C125.951 88.0916 125.018 87.9049 123.711 87.9049L123.631 87.4649H133.551L133.471 87.9049C132.165 87.9049 131.231 88.0916 130.671 88.4649C130.111 88.8116 129.711 89.5716 129.471 90.7449C129.231 91.9182 129.111 93.8249 129.111 96.4649ZM157.277 115.465H137.117L137.197 114.985C138.531 114.985 139.504 114.732 140.117 114.225C140.784 113.665 141.117 111.065 141.117 106.425V96.5049C141.117 93.6516 141.024 91.7049 140.837 90.6649C140.677 89.5982 140.437 88.9316 140.117 88.6649C139.504 88.1582 138.531 87.9049 137.197 87.9049L137.117 87.4649H155.797V93.2249L155.317 93.1449C155.317 91.3582 154.371 90.1182 152.477 89.4249C150.611 88.7316 147.744 88.3849 143.877 88.3849V100.985C146.437 100.985 148.277 100.852 149.397 100.585C150.517 100.318 151.237 99.9182 151.557 99.3849C151.877 98.8249 152.037 97.9049 152.037 96.6249L152.477 96.5449V106.265L152.037 106.185C152.037 104.878 151.877 103.958 151.557 103.425C151.237 102.892 150.517 102.505 149.397 102.265C148.277 101.998 146.437 101.865 143.877 101.865V107.025C143.877 109.852 143.971 111.732 144.157 112.665C144.371 113.598 144.824 114.225 145.517 114.545C153.037 114.545 156.797 112.945 156.797 109.745L157.277 109.665V115.465ZM10.7422 133.773H2.72852V141.465H2.14844V125.824H11.8379V126.404H2.72852V133.172H10.7422V133.773ZM18.3799 141.68C17.4417 141.68 16.5788 141.429 15.791 140.928C15.0104 140.419 14.3981 139.725 13.9541 138.844C13.5101 137.963 13.2881 136.985 13.2881 135.911V135.428C13.2881 134.354 13.5029 133.369 13.9326 132.474C14.3623 131.579 14.9531 130.88 15.7051 130.379C16.457 129.878 17.277 129.627 18.165 129.627C19.4613 129.627 20.5212 130.089 21.3447 131.013C22.1683 131.937 22.5801 133.15 22.5801 134.654V135.267H13.8682V135.9C13.8682 136.846 14.0651 137.723 14.459 138.532C14.86 139.334 15.4079 139.965 16.1025 140.423C16.8044 140.881 17.5635 141.11 18.3799 141.11C19.1605 141.11 19.8229 140.982 20.3672 140.724C20.9186 140.459 21.4056 140.054 21.8281 139.51L22.2363 139.8C21.3698 141.053 20.0843 141.68 18.3799 141.68ZM18.165 130.207C17.0335 130.207 16.0739 130.63 15.2861 131.475C14.4984 132.313 14.0365 133.383 13.9004 134.687H22V134.547C22 133.759 21.8317 133.029 21.4951 132.356C21.1657 131.675 20.7074 131.149 20.1201 130.776C19.54 130.397 18.8883 130.207 18.165 130.207ZM29.4658 141.68C28.5277 141.68 27.6647 141.429 26.877 140.928C26.0964 140.419 25.484 139.725 25.04 138.844C24.596 137.963 24.374 136.985 24.374 135.911V135.428C24.374 134.354 24.5889 133.369 25.0186 132.474C25.4482 131.579 26.0391 130.88 26.791 130.379C27.543 129.878 28.363 129.627 29.251 129.627C30.5472 129.627 31.6071 130.089 32.4307 131.013C33.2542 131.937 33.666 133.15 33.666 134.654V135.267H24.9541V135.9C24.9541 136.846 25.151 137.723 25.5449 138.532C25.946 139.334 26.4938 139.965 27.1885 140.423C27.8903 140.881 28.6494 141.11 29.4658 141.11C30.2464 141.11 30.9089 140.982 31.4531 140.724C32.0046 140.459 32.4915 140.054 32.9141 139.51L33.3223 139.8C32.4557 141.053 31.1702 141.68 29.4658 141.68ZM29.251 130.207C28.1195 130.207 27.1598 130.63 26.3721 131.475C25.5843 132.313 25.1224 133.383 24.9863 134.687H33.0859V134.547C33.0859 133.759 32.9176 133.029 32.5811 132.356C32.2516 131.675 31.7933 131.149 31.2061 130.776C30.626 130.397 29.9743 130.207 29.251 130.207ZM35.8359 135.535C35.8359 133.68 36.2262 132.234 37.0068 131.195C37.7874 130.15 38.8581 129.627 40.2188 129.627C41.0924 129.627 41.8623 129.824 42.5283 130.218C43.2015 130.612 43.7458 131.199 44.1611 131.98V124.965H44.7412V141.465H44.1611V139.607C43.7673 140.265 43.2266 140.777 42.5391 141.143C41.8516 141.501 41.071 141.68 40.1973 141.68C38.8509 141.68 37.7874 141.146 37.0068 140.079C36.2262 139.012 35.8359 137.548 35.8359 135.686V135.535ZM36.4375 135.761C36.4375 137.408 36.7633 138.711 37.415 139.671C38.0667 140.623 38.9906 141.1 40.1865 141.1C41.1462 141.1 41.9661 140.888 42.6465 140.466C43.3268 140.036 43.8317 139.41 44.1611 138.586V133.14C43.4951 131.185 42.1774 130.207 40.208 130.207C39.0192 130.207 38.0918 130.676 37.4258 131.614C36.7669 132.552 36.4375 133.935 36.4375 135.761ZM62.4121 133.709H54.5703V140.885H63.5078V141.465H53.9902V125.824H63.5078V126.404H54.5703V133.129H62.4121V133.709ZM73.3799 138.618C73.3799 137.207 72.1768 136.248 69.7705 135.739C68.3239 135.431 67.3177 135.037 66.752 134.558C66.1862 134.071 65.9033 133.405 65.9033 132.56C65.9033 131.707 66.2614 131.006 66.9775 130.454C67.7008 129.903 68.639 129.627 69.792 129.627C71.0452 129.627 72.0514 129.928 72.8105 130.529C73.5697 131.124 73.9492 131.929 73.9492 132.946H73.3584C73.3584 132.166 73.029 131.514 72.3701 130.991C71.7113 130.468 70.8519 130.207 69.792 130.207C68.7751 130.207 67.9694 130.429 67.375 130.873C66.7806 131.317 66.4834 131.872 66.4834 132.538C66.4834 133.061 66.5944 133.473 66.8164 133.773C67.0384 134.067 67.4001 134.336 67.9014 134.579C68.4027 134.815 69.1331 135.045 70.0928 135.267C71.0524 135.489 71.8115 135.75 72.3701 136.051C72.9287 136.352 73.3333 136.71 73.584 137.125C73.8346 137.533 73.96 138.035 73.96 138.629C73.96 139.546 73.584 140.283 72.832 140.842C72.0801 141.4 71.0954 141.68 69.8779 141.68C68.5745 141.68 67.5218 141.386 66.7197 140.799C65.9248 140.204 65.5273 139.442 65.5273 138.511H66.1074C66.1647 139.327 66.5228 139.965 67.1816 140.423C67.8477 140.874 68.7464 141.1 69.8779 141.1C70.9163 141.1 71.7578 140.86 72.4023 140.38C73.054 139.893 73.3799 139.306 73.3799 138.618ZM78.4717 126.705V129.842H81.1143V130.433H78.4717V138.683C78.4717 139.506 78.6042 140.115 78.8691 140.509C79.1413 140.903 79.5924 141.1 80.2227 141.1C80.5378 141.1 80.9209 141.067 81.3721 141.003L81.4688 141.551C81.2324 141.637 80.8278 141.68 80.2549 141.68C79.4098 141.68 78.8047 141.447 78.4395 140.982C78.0742 140.509 77.888 139.768 77.8809 138.758V130.433H75.7324V129.842H77.8809V126.705H78.4717ZM84.8525 141.465H84.2725V129.842H84.8525V141.465ZM83.9717 126.211C83.9717 126.046 84.029 125.907 84.1436 125.792C84.2581 125.67 84.3978 125.609 84.5625 125.609C84.7272 125.609 84.8669 125.67 84.9814 125.792C85.1032 125.907 85.1641 126.046 85.1641 126.211C85.1641 126.376 85.1032 126.515 84.9814 126.63C84.8669 126.745 84.7272 126.802 84.5625 126.802C84.3978 126.802 84.2581 126.745 84.1436 126.63C84.029 126.515 83.9717 126.376 83.9717 126.211ZM96.9805 141.465H96.4004V133.655C96.3932 132.488 96.1354 131.621 95.627 131.056C95.1257 130.483 94.3236 130.196 93.2207 130.196C91.946 130.196 90.904 130.759 90.0947 131.883C89.6149 132.556 89.2962 133.301 89.1387 134.117V141.465H88.5479V129.842H89.1387V132.592C89.5326 131.647 90.0947 130.916 90.8252 130.4C91.5557 129.885 92.3649 129.627 93.2529 129.627C94.2269 129.627 95.0218 129.842 95.6377 130.272C96.2607 130.701 96.6689 131.403 96.8623 132.377C97.2061 131.539 97.7646 130.873 98.5381 130.379C99.3115 129.878 100.178 129.627 101.138 129.627C102.391 129.627 103.322 129.982 103.931 130.69C104.547 131.399 104.858 132.463 104.865 133.881V141.465H104.285V133.924C104.285 132.649 104.027 131.707 103.512 131.099C103.003 130.483 102.201 130.182 101.105 130.196C99.6947 130.218 98.5775 130.78 97.7539 131.883C97.2812 132.52 97.0234 133.136 96.9805 133.731V141.465ZM115.897 141.465C115.754 140.971 115.683 140.262 115.683 139.338C115.224 140.083 114.598 140.659 113.803 141.067C113.008 141.476 112.109 141.68 111.106 141.68C110.032 141.68 109.166 141.39 108.507 140.81C107.855 140.222 107.529 139.46 107.529 138.522C107.529 137.454 108.009 136.602 108.969 135.965C109.936 135.32 111.217 134.991 112.814 134.977H115.683V133.279C115.683 132.305 115.375 131.55 114.759 131.013C114.15 130.476 113.276 130.207 112.138 130.207C111.078 130.207 110.193 130.479 109.484 131.023C108.775 131.568 108.421 132.241 108.421 133.043L107.841 133.022C107.841 132.076 108.256 131.274 109.087 130.615C109.918 129.956 110.935 129.627 112.138 129.627C113.391 129.627 114.386 129.942 115.124 130.572C115.862 131.195 116.241 132.076 116.263 133.215V138.769C116.263 140.043 116.363 140.91 116.563 141.368V141.465H115.897ZM111.106 141.11C112.195 141.11 113.13 140.867 113.91 140.38C114.698 139.893 115.289 139.209 115.683 138.328V135.567H112.997C111.336 135.567 110.064 135.897 109.184 136.556C108.467 137.093 108.109 137.762 108.109 138.565C108.109 139.273 108.392 139.875 108.958 140.369C109.524 140.863 110.24 141.11 111.106 141.11ZM121.312 126.705V129.842H123.954V130.433H121.312V138.683C121.312 139.506 121.444 140.115 121.709 140.509C121.981 140.903 122.432 141.1 123.062 141.1C123.378 141.1 123.761 141.067 124.212 141.003L124.309 141.551C124.072 141.637 123.668 141.68 123.095 141.68C122.25 141.68 121.645 141.447 121.279 140.982C120.914 140.509 120.728 139.768 120.721 138.758V130.433H118.572V129.842H120.721V126.705H121.312ZM127.692 141.465H127.112V129.842H127.692V141.465ZM126.812 126.211C126.812 126.046 126.869 125.907 126.983 125.792C127.098 125.67 127.238 125.609 127.402 125.609C127.567 125.609 127.707 125.67 127.821 125.792C127.943 125.907 128.004 126.046 128.004 126.211C128.004 126.376 127.943 126.515 127.821 126.63C127.707 126.745 127.567 126.802 127.402 126.802C127.238 126.802 127.098 126.745 126.983 126.63C126.869 126.515 126.812 126.376 126.812 126.211ZM130.625 135.428C130.625 134.318 130.836 133.322 131.259 132.441C131.688 131.553 132.29 130.862 133.063 130.368C133.844 129.874 134.725 129.627 135.706 129.627C136.68 129.627 137.554 129.867 138.327 130.347C139.101 130.827 139.702 131.507 140.132 132.388C140.569 133.269 140.791 134.26 140.798 135.363V135.879C140.798 136.996 140.587 137.995 140.164 138.876C139.742 139.757 139.14 140.444 138.359 140.939C137.586 141.433 136.709 141.68 135.728 141.68C134.746 141.68 133.866 141.436 133.085 140.949C132.312 140.462 131.71 139.782 131.28 138.908C130.851 138.027 130.632 137.039 130.625 135.943V135.428ZM131.205 135.879C131.205 136.846 131.395 137.734 131.774 138.543C132.161 139.345 132.695 139.972 133.375 140.423C134.062 140.874 134.847 141.1 135.728 141.1C137.052 141.1 138.13 140.602 138.961 139.607C139.799 138.611 140.218 137.329 140.218 135.761V135.428C140.218 134.475 140.024 133.594 139.638 132.785C139.251 131.976 138.714 131.346 138.026 130.895C137.346 130.436 136.573 130.207 135.706 130.207C134.381 130.207 133.3 130.712 132.462 131.722C131.624 132.732 131.205 134.003 131.205 135.535V135.879ZM144.203 132.549C144.583 131.647 145.141 130.934 145.879 130.411C146.617 129.888 147.433 129.627 148.328 129.627C149.574 129.627 150.498 129.982 151.1 130.69C151.708 131.392 152.016 132.456 152.023 133.881V141.465H151.443V133.859C151.436 132.613 151.182 131.693 150.681 131.099C150.179 130.497 149.384 130.196 148.296 130.196C147.293 130.196 146.423 130.554 145.686 131.271C144.955 131.98 144.461 132.896 144.203 134.021V141.465H143.623V129.842H144.203V132.549Z" fill="#61C9A8"/>
</g>
<defs>
<clipPath id="clip0">
<rect width="303" height="175" fill="white" transform="translate(0 0.0527344)"/>
</clipPath>
</defs>
</svg>
